<?xml version="1.0" encoding="UTF-8" standalone="no"?>
<svg width="50px" height="97px" viewBox="0 0 50 97" version="1.1" xmlns="http://www.w3.org/2000/svg" xmlns:xlink="http://www.w3.org/1999/xlink">
    <!-- Generator: Sketch 3.6.1 (26313) - http://www.bohemiancoding.com/sketch -->
    <title>write2</title>
    <desc>Created with Sketch.</desc>
    <defs></defs>
    <g id="Page-1" stroke="none" stroke-width="1" fill="none" fill-rule="evenodd">
        <g id="write2">
            <path d="M42.365,14.4866586 L36.148,7.84465856 L39.156,5.04965856 L45.371,11.6916586 L42.365,14.4866586 L42.365,14.4866586 L42.365,14.4866586 Z M25.945,29.7406586 L19.731,23.0976586 L33.076,10.6996586 L39.292,17.3416586 L25.945,29.7406586 L25.945,29.7406586 L25.945,29.7406586 Z M16.922,26.2346586 L22.609,32.3116586 L14.899,33.7956586 L16.922,26.2346586 L16.922,26.2346586 L16.922,26.2346586 Z M35,43.9996586 L4,43.9996586 L4,12.9996586 L24.114,12.9996586 L13.507,22.8916586 C13.221,23.1576586 13.016,23.4986586 12.915,23.8756586 L9.718,35.8706586 C9.532,36.5636586 9.718,37.3016586 10.206,37.8246586 C10.605,38.2506586 11.157,38.4866586 11.728,38.4866586 C11.858,38.4866586 11.99,38.4746586 12.122,38.4476586 L24.31,36.0936586 C24.693,36.0196586 25.048,35.8396586 25.334,35.5716586 L35,26.5586586 L35,43.9996586 L35,43.9996586 L35,43.9996586 Z M49.441,10.3006586 L40.439,0.660658563 C39.655,-0.178341437 38.337,-0.224341437 37.497,0.557658563 L28.719,8.99365856 L3.616,8.99365856 C1.659,8.99365856 0,10.2746586 0,12.2286586 L0,44.4546586 C0,46.4086586 1.593,47.9996586 3.55,47.9996586 L35.824,47.9996586 C37.779,47.9996586 39.015,46.4086586 39.015,44.4546586 L39.015,22.6856586 L49.338,13.2396586 C49.741,12.8636586 49.98,12.3426586 49.999,11.7916586 C50.018,11.2406586 49.818,10.7036586 49.441,10.3006586 L49.441,10.3006586 L49.441,10.3006586 Z" id="active" fill="#B92B27"></path>
            <path d="M42.365,63.4866586 L36.148,56.8446586 L39.156,54.0496586 L45.371,60.6916586 L42.365,63.4866586 L42.365,63.4866586 L42.365,63.4866586 Z M25.945,78.7406586 L19.731,72.0976586 L33.076,59.6996586 L39.292,66.3416586 L25.945,78.7406586 L25.945,78.7406586 L25.945,78.7406586 Z M16.922,75.2346586 L22.609,81.3116586 L14.899,82.7956586 L16.922,75.2346586 L16.922,75.2346586 L16.922,75.2346586 Z M35,92.9996586 L4,92.9996586 L4,61.9996586 L24.114,61.9996586 L13.507,71.8916586 C13.221,72.1576586 13.016,72.4986586 12.915,72.8756586 L9.718,84.8706586 C9.532,85.5636586 9.718,86.3016586 10.206,86.8246586 C10.605,87.2506586 11.157,87.4866586 11.728,87.4866586 C11.858,87.4866586 11.99,87.4746586 12.122,87.4476586 L24.31,85.0936586 C24.693,85.0196586 25.048,84.8396586 25.334,84.5716586 L35,75.5586586 L35,92.9996586 L35,92.9996586 L35,92.9996586 Z M49.441,59.3006586 L40.439,49.6606586 C39.655,48.8216586 38.337,48.7756586 37.497,49.5576586 L28.719,57.9936586 L3.616,57.9936586 C1.659,57.9936586 0,59.2746586 0,61.2286586 L0,93.4546586 C0,95.4086586 1.593,96.9996586 3.55,96.9996586 L35.824,96.9996586 C37.779,96.9996586 39.015,95.4086586 39.015,93.4546586 L39.015,71.6856586 L49.338,62.2396586 C49.741,61.8636586 49.98,61.3426586 49.999,60.7916586 C50.018,60.2406586 49.818,59.7036586 49.441,59.3006586 L49.441,59.3006586 L49.441,59.3006586 Z" id="regular" fill="#999999"></path>
        </g>
    </g>
</svg>