<?xml version="1.0" encoding="UTF-8" standalone="no"?>
<svg width="44px" height="89px" viewBox="0 0 44 89" version="1.1" xmlns="http://www.w3.org/2000/svg" xmlns:xlink="http://www.w3.org/1999/xlink">
    <!-- Generator: Sketch 3.6.1 (26313) - http://www.bohemiancoding.com/sketch -->
    <title>feed2</title>
    <desc>Created with Sketch.</desc>
    <defs></defs>
    <g id="Page-1" stroke="none" stroke-width="1" fill="none" fill-rule="evenodd">
        <g id="feed2">
            <g id="active" fill="#B92B27">
                <path d="M8,32 L36,32 L36,36 L8,36 L8,32 Z M8,8 L36,8 L36,12 L8,12 L8,8 Z M8,16 L20,16 L20,20 L8,20 L8,16 Z M8,24 L20,24 L20,28 L8,28 L8,24 Z M24,16 L36,16 L36,28 L24,28 L24,16 Z" id="Combined-Shape"></path>
                <path d="M4,40 L40,40 L40,4 L4,4 L4,40 L4,40 Z M2.877,44 C1.292,44 0,42.71 0,41.124 L0,2.877 C0,1.291 1.292,0 2.877,0 L41.123,0 C42.709,0 44,1.291 44,2.877 L44,41.124 C44,42.71 42.709,44 41.123,44 L2.877,44 L2.877,44 L2.877,44 Z" id="Fill-16"></path>
            </g>
            <g id="regular" transform="translate(0.000000, 45.000000)" fill="#999999">
                <path d="M8,32 L36,32 L36,36 L8,36 L8,32 Z M8,8 L36,8 L36,12 L8,12 L8,8 Z M8,16 L20,16 L20,20 L8,20 L8,16 Z M8,24 L20,24 L20,28 L8,28 L8,24 Z M24,16 L36,16 L36,28 L24,28 L24,16 Z" id="Combined-Shape"></path>
                <path d="M4,40 L40,40 L40,4 L4,4 L4,40 L4,40 Z M2.877,44 C1.292,44 0,42.71 0,41.124 L0,2.877 C0,1.291 1.292,0 2.877,0 L41.123,0 C42.709,0 44,1.291 44,2.877 L44,41.124 C44,42.71 42.709,44 41.123,44 L2.877,44 L2.877,44 L2.877,44 Z" id="Fill-16"></path>
            </g>
        </g>
    </g>
</svg>